<?xml version="1.0" encoding="UTF-8"?>
<svg width="737px" height="216px" viewBox="0 0 737 216" version="1.1" xmlns="http://www.w3.org/2000/svg" xmlns:xlink="http://www.w3.org/1999/xlink">
    <!-- Generator: Sketch 53.2 (72643) - https://sketchapp.com -->
    <title>Logo</title>
    <desc>Created with Sketch.</desc>
    <g id="Page-1" stroke="none" stroke-width="1" fill="none" fill-rule="evenodd">
        <g id="01.1---Homepage-Copy-7" transform="translate(-465.000000, -119.000000)" fill="#171D46">
            <g id="Logo" transform="translate(465.000000, 119.000000)">
                <g id="Logo-2" transform="translate(210.000000, 178.000000)">
                    <g id="Group-2" transform="translate(0.642362, 0.604862)">
                        <path d="M18.0289421,0.65027549 C23.0364977,0.637608823 26.7436088,2.18153475 30.1551644,5.27642364 C30.6069421,5.67612734 30.6083496,6.2770903 30.2086459,6.67820142 L26.3143496,10.7442014 C25.9653125,11.0946459 25.4136088,11.0960533 25.0631644,10.7470162 C23.206794,9.09753475 20.7508681,8.20383105 18.297757,8.20946067 C12.6413866,8.22353475 8.49797918,12.9383496 8.51064585,18.5468681 C8.52471992,24.1033125 12.7413125,28.6999051 18.3990903,28.6844236 C20.7508681,28.678794 23.3024977,27.8216829 25.1011644,26.2650903 C25.4502014,25.9639051 26.1004236,25.9610903 26.4030162,26.3115347 L30.3170162,30.457757 C30.6688681,30.806794 30.6196088,31.4584236 30.2705718,31.8088681 C26.8744977,35.1219051 22.5734607,36.6855347 18.1176088,36.6953866 C8.10531252,36.7207199 0.0253865916,28.7801273 5.32582212e-05,18.7664236 C-0.0238726677,8.75553475 8.01664585,0.675608823 18.0289421,0.65027549" id="Fill-1"></path>
                        <path d="M55.540994,28.5936459 C61.0481792,28.5795718 65.542031,24.0632014 65.527957,18.6052755 C65.5152903,13.0994977 60.9975125,8.55497919 55.4917347,8.56764586 C50.0352162,8.58171993 45.539957,13.1473496 45.5526236,18.6545347 C45.5666977,24.1124607 50.0844755,28.6077199 55.540994,28.5936459 M55.472031,0.558090305 C65.4843273,0.534164379 73.5135866,8.57327549 73.5389199,18.5869792 C73.5628459,28.5992755 65.572994,36.5792755 55.5606977,36.6032014 C45.546994,36.6285347 37.5684014,28.6865347 37.5430681,18.6742385 C37.5191421,8.66334956 45.4583273,0.583423638 55.472031,0.558090305" id="Fill-3"></path>
                        <path d="M83.5544533,1.94227549 C83.5530459,1.44123845 83.9527496,0.989460675 84.5030459,0.988053268 L105.228527,0.937386601 C105.780231,0.935979193 106.181342,1.38494216 106.18275,1.88597919 L106.195416,7.34390512 C106.196824,7.84212734 105.798527,8.29531253 105.246824,8.29671993 L91.3810459,8.33049771 L91.3979347,15.5392385 L102.812009,15.5110903 C103.313046,15.5096829 103.763416,15.9586459 103.764824,16.4596829 L103.778898,21.9162014 C103.780305,22.4172385 103.329935,22.8690162 102.828898,22.8704236 L91.416231,22.8985718 L91.4457866,35.062794 C91.447194,35.5652385 90.9968236,36.0156088 90.497194,36.0170162 L84.5888977,36.0310903 C84.0400088,36.0324977 83.6374903,35.5835347 83.6360829,35.0824977 L83.5544533,1.94227549 Z" id="Fill-5"></path>
                        <path d="M115.73989,1.86247549 C115.73989,1.36284586 116.139594,0.911068082 116.688483,0.909660675 L137.413964,0.858994008 C137.965668,0.857586601 138.366779,1.30514216 138.368187,1.8075866 L138.382261,7.26410512 C138.383668,7.76373475 137.983964,8.21691993 137.432261,8.21832734 L123.566483,8.25210512 L123.583372,15.4594385 L134.997446,15.4326977 C135.498483,15.4312903 135.948853,15.8802533 135.950261,16.3798829 L135.964335,21.8364014 C135.965742,22.3388459 135.516779,22.7892162 135.015742,22.7906236 L123.601668,22.8201792 L123.631224,34.982994 C123.632631,35.4854385 123.183668,35.9358088 122.682631,35.9372162 L116.774335,35.9526977 C116.225446,35.9541051 115.822927,35.5037347 115.82152,35.0026977 L115.73989,1.86247549 Z" id="Fill-7"></path>
                        <path d="M147.927438,1.78422364 C147.926031,1.2831866 148.325735,0.831408823 148.876031,0.830001416 L169.601513,0.779334749 C170.151809,0.777927342 170.554327,1.2268903 170.554327,1.72792734 L170.568401,7.18585327 C170.569809,7.68407549 170.171513,8.13726067 169.619809,8.13866808 L155.754031,8.17244586 L155.768105,14.3791125 L167.182179,14.3523718 C167.681809,14.3509644 168.133587,14.7999273 168.134994,15.3009644 L168.147661,20.7560755 C168.149068,21.3077792 167.701513,21.7088903 167.199068,21.7102977 L155.786401,21.7398533 L155.80329,28.4968162 L169.669068,28.4630385 C170.220772,28.461631 170.621883,28.910594 170.62329,29.411631 L170.637364,34.8681496 C170.638772,35.3691866 170.239068,35.8209644 169.687364,35.8223718 L148.961883,35.8730385 C148.412994,35.8744459 148.010475,35.4240755 148.009068,34.9244459 L147.927438,1.78422364 Z" id="Fill-9"></path>
                        <path d="M181.264135,1.70174956 C181.264135,1.20211993 181.663838,0.748934749 182.214135,0.747527342 L202.938209,0.696860675 C203.489913,0.695453268 203.891024,1.14441623 203.892431,1.64686067 L203.906505,7.10337919 C203.907913,7.60300882 203.508209,8.05619401 202.957913,8.05760142 L189.090727,8.09137919 L189.106209,14.2980459 L200.520283,14.2698977 C201.019913,14.2684903 201.47169,14.7174533 201.47169,15.2184903 L201.485764,20.6750088 C201.487172,21.2267125 201.038209,21.6278236 200.537172,21.629231 L189.124505,21.6573792 L189.141394,28.4143422 L203.007172,28.3805644 C203.558875,28.379157 203.959987,28.8281199 203.961394,29.3305644 L203.974061,34.7870829 C203.975468,35.2867125 203.577172,35.7398977 203.025468,35.7413051 L182.299987,35.7919718 C181.74969,35.7933792 181.348579,35.3430088 181.347172,34.8419718 L181.264135,1.70174956 Z" id="Fill-11"></path>
                        <path d="M245.184357,0.0922384527 C250.190505,0.079571786 253.899024,1.62349771 257.310579,4.7183866 C257.763764,5.1180903 257.763764,5.71905327 257.364061,6.12016438 L253.471172,10.184757 C253.120727,10.5366088 252.569024,10.5380162 252.218579,10.1889792 C250.362209,8.53949771 247.906283,7.64579401 245.453172,7.65142364 C239.796801,7.66549771 235.653394,12.3803125 235.666061,17.988831 C235.680135,23.5452755 239.896727,28.1418681 245.554505,28.1263866 C247.90769,28.120757 250.457913,27.2636459 252.256579,25.7070533 C252.605616,25.4044607 253.255838,25.4030533 253.558431,25.7534977 L257.472431,29.8997199 C257.824283,30.248757 257.775024,30.9003866 257.425987,31.250831 C254.029913,34.5638681 249.728875,36.1274977 245.273024,36.1373496 C235.260727,36.1626829 227.180801,28.2220903 227.155468,18.2083866 C227.131542,8.19749771 235.173468,0.117571786 245.184357,0.0922384527" id="Fill-13"></path>
                        <path d="M282.696409,28.0356088 C288.203594,28.0215347 292.697446,23.5051644 292.684779,18.0472385 C292.670705,12.5414607 288.154335,7.99694216 282.64715,8.00960882 C277.190631,8.0236829 272.696779,12.5893125 272.708038,18.0964977 C272.722113,23.5544236 277.23989,28.0496829 282.696409,28.0356088 M282.627446,5.32675114e-05 C292.639742,-0.0238726584 300.670409,8.01523845 300.694335,18.0289422 C300.719668,28.0412385 292.728409,36.0212385 282.71752,36.0451644 C272.702409,36.0704977 264.723816,28.1284977 264.69989,18.1162014 C264.674557,8.10531253 272.61515,0.0253866008 282.627446,5.32675114e-05" id="Fill-15"></path>
                        <path d="M311.273394,26.4632533 C313.877098,26.4562162 316.08532,28.6545866 316.092357,31.2568829 C316.097987,33.8113273 313.899616,35.9688829 311.29732,35.9759199 C308.744283,35.9815496 306.58532,33.8338459 306.57969,31.2808088 C306.572653,28.6771051 308.721764,26.4702903 311.273394,26.4632533" id="Fill-17"></path>
                    </g>
                </g>
                <g id="Logo-1">
                    <path d="M62.356,2.072 L62.356,14.313 C62.356,15.443 61.32,16.385 60.077,16.385 L42.261,16.385 C41.018,16.385 39.982,17.327 39.982,18.456 L39.982,129.947 C39.982,131.077 38.947,132.019 37.91,132.019 L24.445,132.019 C23.203,132.019 22.167,131.077 22.167,129.947 L22.167,18.456 C22.167,17.327 21.131,16.385 19.888,16.385 L2.278,16.385 C1.036,16.385 -1.17239551e-13,15.443 -1.17239551e-13,14.313 L-1.17239551e-13,2.072 C-1.17239551e-13,0.942 1.036,1.13686838e-13 2.278,1.13686838e-13 L60.077,1.13686838e-13 C61.32,1.13686838e-13 62.356,0.942 62.356,2.072" id="Fill-19"></path>
                    <path d="M141.9219,24.6711 C141.9219,20.3401 138.1929,16.3841 133.6349,16.3841 L125.7629,16.3841 C124.5199,16.3841 123.4849,17.1381 123.4849,18.2681 L123.4849,48.2131 C123.4849,49.1541 124.5199,49.9081 125.7629,49.9081 L133.6349,49.9081 C138.1929,49.9081 141.9219,46.5181 141.9219,42.3751 L141.9219,24.6711 Z M164.0879,129.9471 C164.5029,131.6431 163.0529,132.0191 161.8089,132.0191 L148.1359,132.0191 C146.8939,132.0191 146.0649,131.0771 145.6509,129.9471 L131.7709,67.6111 C131.5629,66.8581 130.7339,66.2931 129.6999,66.2931 L125.7629,66.2931 C124.5199,66.2931 123.4849,67.0461 123.4849,68.1761 L123.4849,129.9471 C123.4849,131.0771 122.6559,132.0191 121.4129,132.0191 L107.9469,132.0191 C106.7039,132.0191 105.6689,131.0771 105.6689,129.9471 L105.6689,2.0721 C105.6689,0.9421 106.7039,0.0001 107.9469,0.0001 L139.6429,0.0001 C150.8299,0.0001 159.9449,8.8521 159.9449,19.0211 L159.9449,47.8361 C159.9449,54.2391 156.2169,59.7001 150.6229,63.0901 C149.7939,63.6561 149.3799,64.5971 149.7939,66.1041 L164.0879,129.9471 Z" id="Fill-22"></path>
                    <path d="M263.7383,109.4201 C263.7383,128.4411 250.2733,134.6561 236.6003,134.6561 C223.1353,134.6561 209.4623,128.4411 209.4623,109.4201 L209.4623,2.0721 C209.4623,0.3771 211.3263,0.1891 211.7413,0.1891 L224.9983,0.1891 C226.2423,0.1891 227.2773,0.9411 227.2773,2.0721 L227.2773,108.8551 C227.2773,113.3741 228.7283,117.8961 236.6003,117.8961 C244.4733,117.8961 245.9233,113.3741 245.9233,108.8551 L245.9233,2.0721 C245.9233,0.3771 247.7863,0.1891 248.2023,0.1891 L261.4593,0.1891 C262.7023,0.1891 263.7383,0.9411 263.7383,2.0721 L263.7383,109.4201 Z" id="Fill-25"></path>
                    <path d="M331.4907,115.8235 L361.9437,115.8235 C363.3937,115.8235 364.6357,116.7645 364.6357,118.2705 L364.6357,129.1935 C364.6357,130.7005 363.3937,132.0185 361.7357,132.0185 L313.4677,132.0185 C311.8097,132.0185 310.5677,130.7005 310.5677,129.1935 L310.5677,2.8255 C310.5677,1.3185 311.8097,0.1895 313.4677,0.1895 L361.9437,0.1895 C363.6017,0.1895 364.8437,1.3185 364.8437,2.8255 L364.8437,13.9375 C364.8437,15.4435 363.6017,16.5735 361.9437,16.5735 L331.2827,16.5735 C329.6257,16.5735 328.3827,17.7025 328.3827,19.2095 L328.3827,53.4855 C328.3827,54.9925 329.6257,56.1225 331.2827,56.1225 L355.7287,56.1225 C357.3867,56.1225 358.6287,57.2535 358.6287,58.7595 L358.6287,69.6825 C358.6287,71.1885 357.3867,72.3195 355.7287,72.3195 L331.2827,72.3195 C329.4197,72.3195 328.3827,73.4485 328.3827,74.9555 L328.3827,113.1865 C328.3827,114.6935 329.8327,115.8235 331.4907,115.8235" id="Fill-27"></path>
                    <path d="M428.9063,115.635 L436.7783,115.635 C441.1293,115.635 444.2353,111.303 444.2353,107.348 L444.2353,76.462 C444.2353,72.13 441.1293,68.176 436.7783,68.176 L428.9063,68.176 C427.2493,68.176 426.0053,69.305 426.0053,70.812 L426.0053,112.998 C426.0053,114.505 427.2493,115.635 428.9063,115.635 L428.9063,115.635 Z M428.9063,51.414 L436.7783,51.414 C441.1293,51.414 444.2353,47.083 444.2353,43.127 L444.2353,24.671 C444.2353,20.34 441.1293,16.385 436.7783,16.385 L428.9063,16.385 C427.2493,16.385 426.0053,17.515 426.0053,19.021 L426.0053,48.778 C426.0053,50.284 427.2493,51.414 428.9063,51.414 L428.9063,51.414 Z M407.9823,2.825 C407.9823,1.319 409.2253,0.189 410.8823,0.189 L442.7853,0.189 C453.1433,0.189 462.2593,8.476 462.2593,19.399 L462.2593,43.316 C462.2593,50.095 459.1513,55.557 453.1433,58.382 C459.1513,61.207 462.2593,66.669 462.2593,73.637 L462.2593,112.81 C462.2593,122.227 453.1433,132.019 442.7853,132.019 L410.8823,132.019 C409.2253,132.019 407.9823,131.077 407.9823,129.383 L407.9823,2.825 Z" id="Fill-29"></path>
                    <path d="M508.9873,2.8254 C508.9873,1.3184 510.2303,0.1894 511.8873,0.1894 L524.1103,0.1894 C525.7663,0.1894 527.0093,1.3184 527.0093,2.8254 L527.0093,129.3834 C527.0093,130.8894 525.7663,132.0184 524.1103,132.0184 L511.8873,132.0184 C510.2303,132.0184 508.9873,130.8894 508.9873,129.3834 L508.9873,2.8254 Z" id="Fill-31"></path>
                    <path d="M612.2285,24.6711 C612.2285,20.3401 608.4995,16.3841 603.9415,16.3841 L596.0685,16.3841 C594.8265,16.3841 593.7905,17.1381 593.7905,18.2681 L593.7905,48.2131 C593.7905,49.1541 594.8265,49.9081 596.0685,49.9081 L603.9415,49.9081 C608.4995,49.9081 612.2285,46.5181 612.2285,42.3751 L612.2285,24.6711 Z M634.3955,129.9471 C634.8085,131.6431 633.3585,132.0191 632.1165,132.0191 L618.4435,132.0191 C617.2005,132.0191 616.3715,131.0771 615.9575,129.9471 L602.0775,67.6111 C601.8715,66.8581 601.0415,66.2931 600.0045,66.2931 L596.0685,66.2931 C594.8265,66.2931 593.7905,67.0461 593.7905,68.1761 L593.7905,129.9471 C593.7905,131.0771 592.9615,132.0191 591.7185,132.0191 L578.2535,132.0191 C577.0105,132.0191 575.9745,131.0771 575.9745,129.9471 L575.9745,2.0721 C575.9745,0.9421 577.0105,0.0001 578.2535,0.0001 L609.9495,0.0001 C621.1355,0.0001 630.2505,8.8521 630.2505,19.0211 L630.2505,47.8361 C630.2505,54.2391 626.5225,59.7001 620.9285,63.0901 C620.1015,63.6561 619.6855,64.5971 620.1015,66.1041 L634.3955,129.9471 Z" id="Fill-33"></path>
                    <path d="M702.7344,115.8235 L710.8154,115.8235 C715.5784,115.8235 719.5144,112.4335 719.5144,108.2905 L719.5144,24.2955 C719.5144,20.1525 715.5784,16.1975 710.8154,16.1975 L702.1134,16.1975 C700.8714,16.1975 699.8354,16.9495 699.8354,18.0805 L699.8354,113.1865 C699.8354,114.6935 701.0784,115.8235 702.7344,115.8235 L702.7344,115.8235 Z M682.0194,2.8255 C682.0194,1.3185 683.2614,0.1895 684.9204,0.1895 L715.9944,0.1895 C727.1804,0.1895 736.2964,9.0405 736.2964,19.0205 L736.2964,113.9395 C736.2964,123.9215 726.3514,132.0185 715.1654,132.0185 L684.9204,132.0185 C683.2614,132.0185 682.0194,131.0775 682.0194,129.5715 L682.0194,2.8255 Z" id="Fill-36"></path>
                </g>
            </g>
        </g>
    </g>
</svg>